<svg width="30" height="26" viewBox="0 0 30 26" fill="none" xmlns="http://www.w3.org/2000/svg">
<mask id="path-1-inside-1_183_22699" fill="white">
<path fill-rule="evenodd" clip-rule="evenodd" d="M27.0686 2.83159C24.2398 0.00274728 19.6533 0.00275229 16.8245 2.8316L14.8543 4.80171L12.8843 2.83171C10.0555 0.00286476 5.46903 0.00286387 2.64019 2.83171C-0.188659 5.66055 -0.188654 10.247 2.64019 13.0759L14.8544 25.29L25.0985 15.0459L25.0985 15.0459L27.0686 13.0757C29.8975 10.2469 29.8975 5.66044 27.0686 2.83159Z"/>
</mask>
<path d="M16.8245 2.8316L16.1173 2.12449L16.1173 2.12449L16.8245 2.8316ZM27.0686 2.83159L27.7757 2.12449L27.7757 2.12449L27.0686 2.83159ZM14.8543 4.80171L14.1472 5.50882L14.8543 6.21593L15.5614 5.50882L14.8543 4.80171ZM12.8843 2.83171L12.1772 3.53882L12.1772 3.53882L12.8843 2.83171ZM2.64019 2.83171L1.93308 2.1246L1.93308 2.1246L2.64019 2.83171ZM2.64019 13.0759L1.93308 13.783L1.93308 13.783L2.64019 13.0759ZM14.8544 25.29L14.1473 25.9971L14.8544 26.7043L15.5615 25.9971L14.8544 25.29ZM25.0985 15.0459L25.8056 15.753L26.5004 15.0582L25.8179 14.3513L25.0985 15.0459ZM25.0985 15.0459L24.3914 14.3388L23.6966 15.0336L24.3791 15.7405L25.0985 15.0459ZM17.5316 3.5387C19.9699 1.10038 23.9232 1.10038 26.3615 3.5387L27.7757 2.12449C24.5564 -1.09488 19.3367 -1.09488 16.1173 2.12449L17.5316 3.5387ZM15.5614 5.50882L17.5316 3.5387L16.1173 2.12449L14.1472 4.0946L15.5614 5.50882ZM12.1772 3.53882L14.1472 5.50882L15.5614 4.0946L13.5914 2.1246L12.1772 3.53882ZM3.34729 3.53882C5.78561 1.1005 9.73891 1.1005 12.1772 3.53882L13.5914 2.1246C10.3721 -1.09477 5.15245 -1.09477 1.93308 2.1246L3.34729 3.53882ZM3.3473 12.3688C0.908976 9.93044 0.908973 5.97713 3.34729 3.53882L1.93308 2.1246C-1.28629 5.34397 -1.28628 10.5636 1.93308 13.783L3.3473 12.3688ZM15.5615 24.5829L3.3473 12.3688L1.93308 13.783L14.1473 25.9971L15.5615 24.5829ZM24.3914 14.3388L14.1473 24.5829L15.5615 25.9971L25.8056 15.753L24.3914 14.3388ZM24.3791 15.7405L24.3791 15.7405L25.8179 14.3513L25.8179 14.3513L24.3791 15.7405ZM26.3615 12.3686L24.3914 14.3388L25.8056 15.753L27.7757 13.7829L26.3615 12.3686ZM26.3615 3.5387C28.7998 5.97702 28.7998 9.93032 26.3615 12.3686L27.7757 13.7829C30.9951 10.5635 30.9951 5.34385 27.7757 2.12449L26.3615 3.5387Z" fill="#212121" mask="url(#path-1-inside-1_183_22699)"/>
</svg>
