<svg width="31" height="31" viewBox="0 0 31 31" fill="none" xmlns="http://www.w3.org/2000/svg">
<circle cx="15.5" cy="15.5" r="15" stroke="black"/>
<path d="M10 10.5833L9.42857 11.1667L8.28571 10L7.14286 11.1667L6 12.3333L7.14286 13.5L6 14.6667L7.14286 15.8333L6 17L7.14286 18.1667L6 19.3333L7.14286 20.5L6 21.6667L7.14286 22.8333L8.28571 24L9.42857 22.8333L10.5714 24L11.7143 22.8333L12.8571 24L14 22.8333L15.1429 24L16.2857 22.8333L17.4286 24L18.5714 22.8333L19.7143 24L20.8571 22.8333L22 21.6667L21.4286 21.0833" stroke="#212121"/>
<path d="M12.2349 7.61011L11.0921 8.77677L9.94922 9.94344L11.0921 11.1101L9.94922 12.2768L11.0921 13.4434L9.94922 14.6101L11.0921 15.7768L9.94922 16.9434L11.0921 18.1101L9.94922 19.2768L11.0921 20.4434L12.2349 21.6101L13.3778 20.4434L14.5206 21.6101L15.6635 20.4434L16.8064 21.6101L17.9492 20.4434L19.0921 21.6101L20.2349 20.4434L21.3778 21.6101L22.5206 20.4434L23.6635 21.6101L24.8064 20.4434L25.9492 19.2768L24.8064 18.1101L25.9492 16.9434L24.8064 15.7768L25.9492 14.6101L24.8064 13.4434L25.9492 12.2768L24.8064 11.1101L25.9492 9.94344L24.8064 8.77677L23.6635 7.61011L22.5206 8.77677L21.3778 7.61011L20.2349 8.77677L19.0921 7.61011L17.9492 8.77677L16.8064 7.61011L15.6635 8.77677L14.5206 7.61011L13.3778 8.77677L12.2349 7.61011Z" stroke="#212121"/>
</svg>
