<svg width="26" height="30" viewBox="0 0 26 30" fill="none" xmlns="http://www.w3.org/2000/svg">
<path d="M11 21.1L10.0119 22.2198C8.83628 23.5522 8.74344 25.5222 9.78855 26.9593V26.9593C11.0129 28.6428 13.3656 29.0246 15.0595 27.8146L16 27.1429M11 21.1L15.5 16L13.0434 7.22651M11 21.1C12.5 21.9952 15.6 24.4571 16 27.1429M16 27.1429L21.8 23M24.1053 14L24.4457 15.0782C25.3726 18.0131 24.3045 21.2111 21.8 23V23M24.1053 14C21.9368 15.1667 18.44 18.6 21.8 23M24.1053 14L21.8 6.7M13.0434 7.22651L12 3.5L20 1L21.2632 5M13.0434 7.22651L21.2632 5M21.2632 5L21.8 6.7M21.8 6.7L13.5 9" stroke="#212121"/>
<path d="M4 3.5L12 1L13.2632 5L13.8 6.7L16.1053 14L16.4457 15.0782C17.3726 18.0131 16.3045 21.2111 13.8 23L8 27.1429L7.05954 27.8146C5.36559 29.0246 3.01294 28.6428 1.78855 26.9593C0.743439 25.5222 0.836278 23.5522 2.0119 22.2199L3 21.1L7.5 16L5.53712 8.98971L5.04342 7.22651L4 3.5Z" fill="white"/>
<path d="M3 21.1L2.0119 22.2198C0.836278 23.5522 0.743439 25.5222 1.78855 26.9593V26.9593C3.01294 28.6428 5.36559 29.0246 7.05954 27.8146L8 27.1429M3 21.1L7.5 16L5.04342 7.22651M3 21.1C4.5 21.9952 7.6 24.4571 8 27.1429M8 27.1429L13.8 23M16.1053 14L16.4457 15.0782C17.3726 18.0131 16.3045 21.2111 13.8 23V23M16.1053 14C13.9368 15.1667 10.44 18.6 13.8 23M16.1053 14L13.8 6.7M5.04342 7.22651L4 3.5L12 1L13.2632 5M5.04342 7.22651L13.2632 5M13.2632 5L13.8 6.7M13.8 6.7L5.5 9" stroke="#212121"/>
</svg>
