<svg width="34" height="22" viewBox="0 0 34 22" fill="none" xmlns="http://www.w3.org/2000/svg">
<path d="M17.5498 1C18.7165 1 20.3527 1.22721 22.0498 2.5C23.3447 3.47116 24.919 3.67383 26.3657 3.65078C27.5416 3.63206 28.5498 4.514 28.5498 5.69007V10C28.5498 13.5 26.3498 20.7 17.5498 21.5H17.0498" stroke="#212121"/>
<path d="M17.5498 21.5H17.0498C8.2498 20.7 6.0498 13.5 6.0498 10V5.69007C6.0498 4.514 7.05799 3.63206 8.23391 3.65078C9.6806 3.67383 11.2549 3.47116 12.5498 2.5C14.2469 1.22721 15.8831 1 17.0498 1H17.5498" stroke="#212121"/>
<path d="M5.54993 6H2.91626C1.90209 6 1.03332 6.75786 1.00603 7.77167C0.920749 10.9387 1.68228 15.4129 7.04976 15" stroke="#212121"/>
<path d="M28.5497 6H31.1833C32.1975 6 33.0663 6.75786 33.0936 7.77167C33.1789 10.9387 32.4173 15.4129 27.0499 15" stroke="#212121"/>
<path d="M10 14C12.5 15.1667 18.7 16.8 23.5 14" stroke="#212121" stroke-linecap="round"/>
<path d="M9 10C11.7778 10.7546 18.6667 11.8111 24 10" stroke="#212121" stroke-linecap="round"/>
<path d="M9 6.5H24" stroke="#212121" stroke-linecap="round"/>
</svg>
