<svg width="30" height="13" viewBox="0 0 30 13" fill="none" xmlns="http://www.w3.org/2000/svg">
<path d="M1 2.5H6.5V10.5H1C0.723858 10.5 0.5 10.2761 0.5 10V3C0.5 2.72386 0.723858 2.5 1 2.5Z" stroke="#212121"/>
<path d="M7 0.5H17C17.2761 0.5 17.5 0.723857 17.5 1V12C17.5 12.2761 17.2761 12.5 17 12.5H7C6.72386 12.5 6.5 12.2761 6.5 12V1C6.5 0.723858 6.72386 0.5 7 0.5Z" stroke="#212121"/>
<path d="M10 3.5H14C14.2761 3.5 14.5 3.72386 14.5 4V6.5V9C14.5 9.27614 14.2761 9.5 14 9.5H10C9.72386 9.5 9.5 9.27614 9.5 9V4C9.5 3.72386 9.72386 3.5 10 3.5Z" stroke="#212121"/>
<path d="M17.5 10.5V2.5H29C29.2761 2.5 29.5 2.72386 29.5 3V10C29.5 10.2761 29.2761 10.5 29 10.5H17.5Z" stroke="#212121"/>
<circle cx="3.5" cy="6.5" r="1" stroke="#212121"/>
<circle cx="21.5" cy="6.5" r="1" stroke="#212121"/>
<circle cx="25.5" cy="6.5" r="1" stroke="#212121"/>
<rect x="13.5" y="5.5" width="4" height="2" rx="0.5" fill="white" stroke="#212121"/>
</svg>
