<svg width="66" height="15" viewBox="0 0 66 15" fill="none" xmlns="http://www.w3.org/2000/svg">
<path d="M12.4836 0.912598L12.8689 2.21523L12.2745 2.64944H12.9965L13.3818 3.95207L12.7874 4.38628H13.5093L13.8947 5.68891L7.95019 10.031H12.4836L12.8689 11.3337H6.16682L5.57237 11.7679H12.9966L13.3819 13.0705H3.789L3.19455 13.5047H13.5093L13.8947 14.8073H1.41118L1.02575 13.5047L1.62027 13.0705H0.898277L0.512886 11.7679L1.10734 11.3337H0.385362L0 10.031L5.94455 5.68891H1.41118L1.02582 4.38628H7.72791L8.32237 3.95207H0.898273L0.512911 2.64944H10.1057L10.7002 2.21523H0.385362L0 0.912598H12.4836ZM10.4911 3.95207L9.89664 4.38628H10.6186L11.2131 3.95207H10.4911ZM11.7259 5.68891H11.004L5.05946 10.031H5.78141L11.7259 5.68891ZM8.83527 5.68891H8.11328L2.16873 10.031H2.89071L8.83527 5.68891ZM3.27609 11.3337L2.68164 11.7679H3.40362L3.99807 11.3337H3.27609Z" fill="black"/>
<mask id="mask0_183_22787" style="mask-type:luminance" maskUnits="userSpaceOnUse" x="0" y="0" width="14" height="15">
<path d="M12.4836 0.912598L12.8689 2.21523L12.2745 2.64944H12.9965L13.3818 3.95207L12.7874 4.38628H13.5093L13.8947 5.68891L7.95019 10.031H12.4836L12.8689 11.3337H6.16682L5.57237 11.7679H12.9966L13.3819 13.0705H3.789L3.19455 13.5047H13.5093L13.8947 14.8073H1.41118L1.02575 13.5047L1.62027 13.0705H0.898277L0.512886 11.7679L1.10734 11.3337H0.385362L0 10.031L5.94455 5.68891H1.41118L1.02582 4.38628H7.72791L8.32237 3.95207H0.898273L0.512911 2.64944H10.1057L10.7002 2.21523H0.385362L0 0.912598H12.4836ZM10.4911 3.95207L9.89664 4.38628H10.6186L11.2131 3.95207H10.4911ZM11.7259 5.68891H11.004L5.05946 10.031H5.78141L11.7259 5.68891ZM8.83527 5.68891H8.11328L2.16873 10.031H2.89071L8.83527 5.68891ZM3.27609 11.3337L2.68164 11.7679H3.40362L3.99807 11.3337H3.27609Z" fill="#263238"/>
</mask>
<g mask="url(#mask0_183_22787)">
<path d="M13.8947 0.912598H0V14.8073H13.8947V0.912598Z" fill="#263238"/>
</g>
<g opacity="0.85">
<path d="M1.02588 13.5047L13.5093 4.38623L13.8948 5.68886L1.41124 14.8073L1.02588 13.5047Z" fill="#8E24AA"/>
<mask id="mask1_183_22787" style="mask-type:luminance" maskUnits="userSpaceOnUse" x="1" y="4" width="13" height="11">
<path d="M1.02588 13.5047L13.5093 4.38623L13.8948 5.68886L1.41124 14.8073L1.02588 13.5047Z" fill="#8E24AA"/>
</mask>
<g mask="url(#mask1_183_22787)">
<path d="M13.8947 0.912598H0V14.8073H13.8947V0.912598Z" fill="#8E24AA"/>
</g>
<path d="M0.512939 11.7678L12.9965 2.64941L13.3819 3.95205L0.898327 13.0705L0.512939 11.7678Z" fill="#FFEE58"/>
<mask id="mask2_183_22787" style="mask-type:luminance" maskUnits="userSpaceOnUse" x="0" y="2" width="14" height="12">
<path d="M0.512939 11.7678L12.9965 2.64941L13.3819 3.95205L0.898327 13.0705L0.512939 11.7678Z" fill="#FFEE58"/>
</mask>
<g mask="url(#mask2_183_22787)">
<path d="M13.8947 0.912598H0V14.8073H13.8947V0.912598Z" fill="#FFEE58"/>
</g>
<path d="M0 10.031L12.4836 0.912598L12.8689 2.21523L0.385362 11.3337L0 10.031Z" fill="#F50057"/>
<mask id="mask3_183_22787" style="mask-type:luminance" maskUnits="userSpaceOnUse" x="0" y="0" width="13" height="12">
<path d="M0 10.031L12.4836 0.912598L12.8689 2.21523L0.385362 11.3337L0 10.031Z" fill="#F50057"/>
</mask>
<g mask="url(#mask3_183_22787)">
<path d="M13.8947 0.912598H0V14.8073H13.8947V0.912598Z" fill="#F50057"/>
</g>
</g>
<path d="M13.8949 14.807L13.5095 13.5044H1.02588L1.41131 14.807H13.8949Z" fill="#8E24AA"/>
<mask id="mask4_183_22787" style="mask-type:luminance" maskUnits="userSpaceOnUse" x="1" y="13" width="13" height="2">
<path d="M13.8949 14.807L13.5095 13.5044H1.02588L1.41131 14.807H13.8949Z" fill="#8E24AA"/>
</mask>
<g mask="url(#mask4_183_22787)">
<path d="M13.8947 0.912598H0V14.8073H13.8947V0.912598Z" fill="#8E24AA"/>
</g>
<path d="M13.3819 13.0702L12.9965 11.7676H0.512939L0.898229 13.0702H13.3819Z" fill="#FFEE58"/>
<mask id="mask5_183_22787" style="mask-type:luminance" maskUnits="userSpaceOnUse" x="0" y="11" width="14" height="3">
<path d="M13.3819 13.0702L12.9965 11.7676H0.512939L0.898229 13.0702H13.3819Z" fill="#FFEE58"/>
</mask>
<g mask="url(#mask5_183_22787)">
<path d="M13.8947 0.912598H0V14.8073H13.8947V0.912598Z" fill="#FFEE58"/>
</g>
<path d="M12.8689 11.3334L12.4836 10.0308H0L0.385362 11.3334H12.8689Z" fill="#F50057"/>
<mask id="mask6_183_22787" style="mask-type:luminance" maskUnits="userSpaceOnUse" x="0" y="10" width="13" height="2">
<path d="M12.8689 11.3334L12.4836 10.0308H0L0.385362 11.3334H12.8689Z" fill="#F50057"/>
</mask>
<g mask="url(#mask6_183_22787)">
<path d="M13.8947 0.912598H0V14.8073H13.8947V0.912598Z" fill="#F50057"/>
</g>
<path d="M13.8948 5.68886L13.5094 4.38623H1.02588L1.41124 5.68886H13.8948Z" fill="#8E24AA"/>
<mask id="mask7_183_22787" style="mask-type:luminance" maskUnits="userSpaceOnUse" x="1" y="4" width="13" height="2">
<path d="M13.8948 5.68886L13.5094 4.38623H1.02588L1.41124 5.68886H13.8948Z" fill="#8E24AA"/>
</mask>
<g mask="url(#mask7_183_22787)">
<path d="M13.8947 0.912598H0V14.8073H13.8947V0.912598Z" fill="#8E24AA"/>
</g>
<path d="M13.3819 3.95205L12.9965 2.64941H0.512939L0.898301 3.95205H13.3819Z" fill="#FFEE58"/>
<mask id="mask8_183_22787" style="mask-type:luminance" maskUnits="userSpaceOnUse" x="0" y="2" width="14" height="2">
<path d="M13.3819 3.95205L12.9965 2.64941H0.512939L0.898301 3.95205H13.3819Z" fill="#FFEE58"/>
</mask>
<g mask="url(#mask8_183_22787)">
<path d="M13.8947 0.912598H0V14.8073H13.8947V0.912598Z" fill="#FFEE58"/>
</g>
<path d="M12.8689 2.21523L12.4836 0.912598H0L0.385362 2.21523H12.8689Z" fill="#F50057"/>
<mask id="mask9_183_22787" style="mask-type:luminance" maskUnits="userSpaceOnUse" x="0" y="0" width="13" height="3">
<path d="M12.8689 2.21523L12.4836 0.912598H0L0.385362 2.21523H12.8689Z" fill="#F50057"/>
</mask>
<g mask="url(#mask9_183_22787)">
<path d="M13.8947 0.912598H0V14.8073H13.8947V0.912598Z" fill="#F50057"/>
</g>
<path d="M21.3627 12.1364H19.2161V4.39299H21.3627V12.1364ZM21.5644 2.15534C21.5644 2.55773 21.4347 2.87669 21.1754 3.11223C20.9257 3.33796 20.6279 3.45082 20.2822 3.45082C19.9364 3.45082 19.6339 3.33796 19.3746 3.11223C19.1249 2.87669 19 2.55773 19 2.15534C19 1.75296 19.1249 1.4389 19.3746 1.21318C19.6339 0.977634 19.9364 0.859863 20.2822 0.859863C20.6279 0.859863 20.9257 0.977634 21.1754 1.21318C21.4347 1.4389 21.5644 1.75296 21.5644 2.15534Z" fill="white"/>
<path d="M22.8763 4.65797C23.2412 4.55001 23.7119 4.45187 24.2881 4.36354C24.8644 4.2654 25.4695 4.21633 26.1034 4.21633C26.7469 4.21633 27.2799 4.30466 27.7025 4.48131C28.1347 4.64816 28.4756 4.8886 28.7254 5.20266C28.9751 5.51672 29.1528 5.88966 29.2584 6.32148C29.3641 6.75331 29.4169 7.23421 29.4169 7.76417V12.1364H27.2703V8.02916C27.2703 7.32253 27.1791 6.82201 26.9966 6.52758C26.8141 6.23315 26.4731 6.08594 25.9737 6.08594C25.82 6.08594 25.6568 6.09576 25.4839 6.11538C25.311 6.1252 25.1573 6.13992 25.0229 6.15955V12.1364H22.8763V4.65797Z" fill="white"/>
<path d="M30.7836 2.46449L32.9302 2.11118V4.39299H35.509V6.21843H32.9302V8.94188C32.9302 9.40315 33.007 9.77118 33.1607 10.046C33.324 10.3208 33.6457 10.4582 34.1259 10.4582C34.3564 10.4582 34.5917 10.4386 34.8319 10.3993C35.0816 10.3502 35.3073 10.2864 35.509 10.2079L35.8115 11.9156C35.5522 12.0235 35.2641 12.1168 34.9471 12.1953C34.6302 12.2738 34.2412 12.3131 33.7802 12.3131C33.1943 12.3131 32.7093 12.2346 32.3251 12.0775C31.9409 11.9107 31.6336 11.685 31.4031 11.4003C31.1726 11.1059 31.0093 10.7526 30.9133 10.3404C30.8268 9.92821 30.7836 9.47185 30.7836 8.97132V2.46449Z" fill="white"/>
<path d="M36.1112 8.32359C36.1112 7.63659 36.2121 7.03792 36.4138 6.52758C36.6251 6.00743 36.8988 5.5756 37.2349 5.2321C37.5711 4.88861 37.9553 4.62853 38.3875 4.45187C38.8293 4.27522 39.2807 4.18689 39.7417 4.18689C40.8174 4.18689 41.6674 4.52548 42.2917 5.20266C42.916 5.87003 43.2281 6.85636 43.2281 8.16165C43.2281 8.28924 43.2233 8.43154 43.2137 8.58857C43.2041 8.73578 43.1945 8.86828 43.1849 8.98605H38.3154C38.3635 9.4375 38.57 9.79572 38.9349 10.0607C39.2999 10.3257 39.7897 10.4582 40.4044 10.4582C40.7982 10.4582 41.1824 10.4238 41.5569 10.3551C41.9411 10.2766 42.2532 10.1834 42.4934 10.0754L42.7815 11.8567C42.6662 11.9156 42.5126 11.9745 42.3205 12.0334C42.1284 12.0923 41.9123 12.1413 41.6722 12.1806C41.4417 12.2296 41.192 12.2689 40.923 12.2983C40.6541 12.3278 40.3852 12.3425 40.1163 12.3425C39.4344 12.3425 38.8389 12.2395 38.3298 12.0334C37.8304 11.8273 37.4126 11.5476 37.0765 11.1942C36.7499 10.8311 36.505 10.4042 36.3417 9.91349C36.1881 9.42278 36.1112 8.89281 36.1112 8.32359ZM41.1535 7.48447C41.1439 7.298 41.1103 7.11643 41.0527 6.93978C41.0047 6.76312 40.923 6.60609 40.8078 6.4687C40.7021 6.3313 40.5629 6.21843 40.39 6.1301C40.2267 6.04178 40.0202 5.99761 39.7705 5.99761C39.5304 5.99761 39.3239 6.04178 39.151 6.1301C38.9781 6.20862 38.8341 6.31658 38.7188 6.45397C38.6036 6.59137 38.5123 6.75331 38.4451 6.93978C38.3875 7.11643 38.3443 7.298 38.3154 7.48447H41.1535Z" fill="white"/>
<path d="M48.9473 6.3362C48.7552 6.28713 48.5295 6.23806 48.2702 6.18899C48.0109 6.13011 47.7323 6.10066 47.4346 6.10066C47.3001 6.10066 47.1369 6.11538 46.9448 6.14483C46.7623 6.16445 46.623 6.18899 46.527 6.21843V12.1364H44.3804V4.80518C44.7646 4.66778 45.216 4.5402 45.7346 4.42243C46.2629 4.29484 46.8487 4.23105 47.4922 4.23105C47.6075 4.23105 47.7467 4.24087 47.91 4.26049C48.0733 4.27031 48.2366 4.28994 48.3998 4.31938C48.5631 4.33901 48.7264 4.36845 48.8897 4.40771C49.0529 4.43715 49.1922 4.47641 49.3075 4.52548L48.9473 6.3362Z" fill="white"/>
<path d="M49.248 14.8599C49.1136 14.8599 48.9167 14.8451 48.6574 14.8157C48.3884 14.7863 48.1387 14.7323 47.9082 14.6538L48.1963 12.8725C48.3404 12.9216 48.4749 12.9559 48.5997 12.9755C48.715 12.9952 48.8639 13.005 49.0463 13.005C49.3825 13.005 49.6178 12.9019 49.7523 12.6958C49.8867 12.4897 49.954 12.1904 49.954 11.7978V4.39299H52.1005V11.8567C52.1005 12.8774 51.8556 13.6331 51.3658 14.1238C50.876 14.6145 50.1701 14.8599 49.248 14.8599ZM52.3022 2.15534C52.3022 2.55773 52.1726 2.87669 51.9133 3.11223C51.6635 3.33796 51.3658 3.45082 51.02 3.45082C50.6743 3.45082 50.3718 3.33796 50.1124 3.11223C49.8627 2.87669 49.7379 2.55773 49.7379 2.15534C49.7379 1.75296 49.8627 1.4389 50.1124 1.21318C50.3718 0.977634 50.6743 0.859863 51.02 0.859863C51.3658 0.859863 51.6635 0.977634 51.9133 1.21318C52.1726 1.4389 52.3022 1.75296 52.3022 2.15534Z" fill="white"/>
<path d="M56.5099 10.6054C56.7212 10.6054 56.9229 10.6005 57.1149 10.5907C57.307 10.5809 57.4607 10.5661 57.576 10.5465V8.883C57.4895 8.86337 57.3599 8.84374 57.187 8.82411C57.0141 8.80448 56.8556 8.79467 56.7116 8.79467C56.5099 8.79467 56.3178 8.80939 56.1353 8.83883C55.9624 8.85846 55.8087 8.90262 55.6743 8.97132C55.5398 9.04002 55.4342 9.13326 55.3573 9.25103C55.2805 9.3688 55.2421 9.51601 55.2421 9.69267C55.2421 10.0362 55.3525 10.2766 55.5734 10.414C55.8039 10.5416 56.1161 10.6054 56.5099 10.6054ZM56.337 4.18689C56.9709 4.18689 57.4991 4.26049 57.9217 4.40771C58.3443 4.55492 58.6805 4.76593 58.9302 5.04073C59.1895 5.31552 59.372 5.64921 59.4776 6.04178C59.5833 6.43435 59.6361 6.87108 59.6361 7.35198V11.9156C59.3288 11.9843 58.9014 12.0628 58.3539 12.1511C57.8065 12.2493 57.1438 12.2983 56.3658 12.2983C55.876 12.2983 55.4294 12.2542 55.026 12.1659C54.6322 12.0775 54.2913 11.9352 54.0031 11.7389C53.715 11.5328 53.4941 11.2679 53.3404 10.944C53.1867 10.6201 53.1099 10.2226 53.1099 9.75156C53.1099 9.3001 53.1963 8.91735 53.3692 8.60329C53.5517 8.28923 53.7918 8.03897 54.0896 7.8525C54.3873 7.66603 54.7283 7.53354 55.1124 7.45503C55.4966 7.3667 55.8952 7.32253 56.3082 7.32253C56.5867 7.32253 56.8316 7.33726 57.0429 7.3667C57.2638 7.38633 57.4415 7.41577 57.576 7.45503V7.24893C57.576 6.87599 57.4655 6.57665 57.2446 6.35093C57.0237 6.1252 56.6395 6.01233 56.0921 6.01233C55.7271 6.01233 55.3669 6.04178 55.0116 6.10066C54.6562 6.14973 54.3489 6.22334 54.0896 6.32148L53.8158 4.55492C53.9407 4.51566 54.0944 4.47641 54.2768 4.43715C54.4689 4.38808 54.6754 4.34882 54.8963 4.31938C55.1172 4.28012 55.3477 4.25068 55.5878 4.23105C55.8376 4.20161 56.0873 4.18689 56.337 4.18689Z" fill="white"/>
<path d="M65.6398 6.3362C65.4477 6.28713 65.222 6.23806 64.9627 6.18899C64.7034 6.13011 64.4249 6.10066 64.1271 6.10066C63.9927 6.10066 63.8294 6.11538 63.6373 6.14483C63.4548 6.16445 63.3156 6.18899 63.2195 6.21843V12.1364H61.0729V4.80518C61.4571 4.66778 61.9085 4.5402 62.4272 4.42243C62.9554 4.29484 63.5413 4.23105 64.1848 4.23105C64.3 4.23105 64.4393 4.24087 64.6026 4.26049C64.7658 4.27031 64.9291 4.28994 65.0924 4.31938C65.2557 4.33901 65.4189 4.36845 65.5822 4.40771C65.7455 4.43715 65.8847 4.47641 66 4.52548L65.6398 6.3362Z" fill="white"/>
</svg>
