<svg width="69" height="13" viewBox="0 0 69 13" fill="none" xmlns="http://www.w3.org/2000/svg">
<g clip-path="url(#clip0_183_16485)">
<path d="M3.83537 9.47497H8.12952C8.20293 9.77944 8.25798 10.0481 8.27633 10.2988C8.29468 10.5496 8.31303 10.8003 8.31303 11.0332C8.31303 11.266 8.29468 11.5168 8.27633 11.7854C8.25798 12.0362 8.20293 12.3227 8.12952 12.6093H0L0.0183511 1.1287C0.34867 1.05706 0.678989 1.00332 1.00931 0.967503C1.33963 0.949592 1.6516 0.931682 1.96356 0.931682C2.25718 0.931682 2.56915 0.949592 2.89947 0.967503C3.22979 1.00332 3.56011 1.05706 3.87207 1.1287L3.83537 9.47497Z" fill="url(#paint0_linear_183_16485)"/>
<path d="M13.7816 12.5735C13.3963 12.6272 13.0293 12.6809 12.7173 12.6988C12.4053 12.7347 12.1117 12.7347 11.8548 12.7347C11.5979 12.7347 11.3043 12.7168 10.9923 12.6988C10.6803 12.663 10.3316 12.6272 9.94628 12.5735V1.1287C10.2766 1.05706 10.6069 1.00332 10.9372 0.967503C11.2676 0.931682 11.5795 0.931682 11.8731 0.931682C12.1668 0.931682 12.4787 0.949592 12.809 0.967503C13.1394 1.00332 13.4697 1.05706 13.7816 1.1287V12.5735Z" fill="url(#paint1_linear_183_16485)"/>
<path d="M21.0487 0.895861C21.6726 0.895861 22.2782 0.949592 22.8838 1.03914C23.4894 1.1287 24.0582 1.32571 24.5721 1.63019C24.9574 1.43317 25.4346 1.27198 25.9668 1.1287C26.4989 0.985413 27.1045 0.913771 27.7652 0.913771C28.3524 0.913771 28.958 0.967503 29.6003 1.07497C30.2242 1.18243 30.7931 1.41526 31.3069 1.77347C31.8207 2.13168 32.2245 2.63317 32.5548 3.31377C32.8851 3.97646 33.0503 4.85407 33.0503 5.94661V12.5914C32.6649 12.663 32.2979 12.7168 31.9859 12.7347C31.6739 12.7526 31.3803 12.7705 31.1418 12.7705C30.8848 12.7705 30.5912 12.7526 30.2793 12.7347C29.9673 12.7168 29.6003 12.663 29.2149 12.5914V6.34064C29.2149 5.55258 29.0864 4.99735 28.8112 4.65706C28.5359 4.31676 28.0955 4.15556 27.4715 4.15556C27.2513 4.15556 27.0495 4.17347 26.8476 4.2272C26.6457 4.26302 26.4989 4.31676 26.4255 4.33467C26.554 4.85407 26.6274 5.44511 26.6274 6.1078V12.5914C26.242 12.663 25.875 12.7168 25.563 12.7347C25.2511 12.7526 24.9574 12.7705 24.7189 12.7705C24.462 12.7705 24.1684 12.7526 23.8564 12.7347C23.5444 12.7168 23.1774 12.663 22.792 12.5914V6.34064C22.792 5.55258 22.6636 4.99735 22.4066 4.65706C22.1497 4.31676 21.7093 4.15556 21.0854 4.15556C20.9202 4.15556 20.7367 4.17347 20.5532 4.19138C20.3697 4.2272 20.2412 4.24511 20.2045 4.28094V12.5735C19.8191 12.6451 19.4521 12.6988 19.1402 12.7168C18.8282 12.7347 18.5346 12.7526 18.296 12.7526C18.0391 12.7526 17.7455 12.7347 17.4335 12.7168C17.1215 12.6988 16.7545 12.6451 16.3691 12.5735V1.68392C16.9013 1.50482 17.5436 1.32571 18.2777 1.16452C18.975 0.985413 19.9109 0.895861 21.0487 0.895861Z" fill="url(#paint2_linear_183_16485)"/>
<path d="M38.7758 8.04213C38.941 8.65108 39.2346 9.08094 39.6566 9.33168C40.0787 9.58243 40.6293 9.7078 41.3082 9.7078C41.7487 9.7078 42.2441 9.65407 42.7947 9.54661C43.3452 9.43914 43.8774 9.29586 44.4096 9.08094C44.6298 9.45706 44.8133 9.92273 44.9601 10.46C45.1253 10.9974 45.1987 11.5526 45.217 12.1257C43.859 12.6093 42.4827 12.86 41.0697 12.86C39.987 12.86 39.0511 12.7168 38.262 12.4123C37.4729 12.1078 36.8489 11.7138 36.3535 11.1765C35.858 10.6571 35.491 10.0302 35.2707 9.29586C35.0322 8.57944 34.9221 7.77347 34.9221 6.91377C34.9221 6.07198 35.0505 5.28392 35.2891 4.53168C35.5277 3.79735 35.8947 3.15258 36.3718 2.59735C36.8489 2.04213 37.4545 1.61228 38.1886 1.3078C38.9226 0.985413 39.7668 0.824219 40.7394 0.824219C41.5468 0.824219 42.2625 0.949592 42.8864 1.21825C43.5104 1.48691 44.0426 1.84511 44.483 2.31079C44.9234 2.77646 45.2537 3.33168 45.4923 3.99437C45.7308 4.65706 45.841 5.37347 45.841 6.14362C45.841 6.53765 45.8226 6.89586 45.7859 7.21825C45.7492 7.54064 45.7125 7.79138 45.6758 8.00631H38.7758V8.04213ZM40.5926 3.67198C40.1154 3.67198 39.6933 3.81526 39.3447 4.11974C38.996 4.42422 38.7941 4.87198 38.7391 5.49885H42.3726C42.3359 4.97944 42.1707 4.54959 41.8771 4.20929C41.5835 3.85108 41.1431 3.67198 40.5926 3.67198Z" fill="url(#paint3_linear_183_16485)"/>
<path d="M51.548 9.47492H55.8422C55.9156 9.7794 55.9706 10.0481 55.989 10.2988C56.0073 10.5496 56.0257 10.8003 56.0257 11.0331C56.0257 11.266 56.0073 11.5167 55.989 11.7854C55.9706 12.0361 55.9156 12.3227 55.8422 12.6093H47.7126L47.731 1.12866C48.0613 1.05701 48.3916 1.00328 48.722 0.967462C49.0523 0.931641 49.3642 0.931641 49.6579 0.931641C49.9515 0.931641 50.2634 0.949551 50.5938 0.967462C50.9241 1.00328 51.2544 1.05701 51.5664 1.12866L51.548 9.47492Z" fill="white"/>
<path d="M63.1643 1.1283C63.2927 1.09248 63.5129 1.07457 63.8616 1.03875C64.2103 1.00293 64.5773 1.00293 64.9627 1.00293C65.4582 1.00293 65.9169 1.02084 66.3023 1.03875C66.6877 1.07457 66.9813 1.09248 67.1464 1.1283L62.7605 8.56114V12.5731C62.3752 12.6268 62.0082 12.6805 61.6962 12.6985C61.3842 12.7343 61.0906 12.7343 60.8337 12.7343C60.5768 12.7343 60.2831 12.7164 59.9712 12.6985C59.6592 12.6626 59.3105 12.6268 58.9252 12.5731V8.56114L54.5576 1.1283C54.7228 1.09248 55.0164 1.07457 55.4385 1.03875C55.8605 1.00293 56.3193 1.00293 56.8148 1.00293C57.2002 1.00293 57.6039 1.02084 57.9709 1.03875C58.3563 1.07457 58.5949 1.09248 58.7233 1.1283L60.9438 5.49845L63.1643 1.1283Z" fill="white"/>
<path d="M67.2565 9.36719C67.5134 9.36719 67.7704 9.3851 68.0273 9.40301C68.2842 9.42092 68.5595 9.45674 68.8531 9.49256C68.9081 9.77913 68.9448 10.0478 68.9632 10.2985C68.9815 10.5493 68.9999 10.8 68.9999 11.0508C68.9999 11.3015 68.9815 11.5523 68.9632 11.803C68.9448 12.0538 68.9081 12.3224 68.8531 12.609C68.5595 12.6627 68.2842 12.6985 68.0273 12.7164C67.7704 12.7344 67.5134 12.7523 67.2565 12.7523C66.9996 12.7523 66.7611 12.7344 66.4858 12.7164C66.2289 12.6985 65.9536 12.6627 65.66 12.609C65.6049 12.3224 65.5682 12.0538 65.5499 11.803C65.5315 11.5523 65.5132 11.3015 65.5132 11.0508C65.5132 10.8 65.5315 10.5672 65.5499 10.2985C65.5682 10.0478 65.6049 9.77913 65.66 9.49256C65.9536 9.45674 66.2289 9.42092 66.4858 9.40301C66.7611 9.36719 67.018 9.36719 67.2565 9.36719Z" fill="white"/>
</g>
<defs>
<linearGradient id="paint0_linear_183_16485" x1="0" y1="6.84213" x2="45.841" y2="6.84213" gradientUnits="userSpaceOnUse">
<stop stop-color="#A7C838"/>
<stop offset="1" stop-color="#D6D822"/>
</linearGradient>
<linearGradient id="paint1_linear_183_16485" x1="0" y1="6.84213" x2="45.841" y2="6.84213" gradientUnits="userSpaceOnUse">
<stop stop-color="#A7C838"/>
<stop offset="1" stop-color="#D6D822"/>
</linearGradient>
<linearGradient id="paint2_linear_183_16485" x1="0" y1="6.84213" x2="45.841" y2="6.84213" gradientUnits="userSpaceOnUse">
<stop stop-color="#A7C838"/>
<stop offset="1" stop-color="#D6D822"/>
</linearGradient>
<linearGradient id="paint3_linear_183_16485" x1="0" y1="6.84213" x2="45.841" y2="6.84213" gradientUnits="userSpaceOnUse">
<stop stop-color="#A7C838"/>
<stop offset="1" stop-color="#D6D822"/>
</linearGradient>
<clipPath id="clip0_183_16485">
<rect width="69" height="12" fill="white" transform="translate(0 0.859863)"/>
</clipPath>
</defs>
</svg>
