<svg width="152" height="62" viewBox="0 0 152 62" fill="none" xmlns="http://www.w3.org/2000/svg">
<path d="M10.8399 25.1943L1 25.1943" stroke="#212121" stroke-width="1.5" stroke-linecap="round"/>
<path d="M21.0874 29.8638L7.4668 29.8638" stroke="#212121" stroke-width="1.5" stroke-linecap="round"/>
<path d="M22.0132 0.999999L8.39258 1" stroke="#212121" stroke-width="1.5" stroke-linecap="round"/>
<path d="M117.46 3.58765H34.662L28.1487 48.5264L27.7207 51.6084H145.586L148.842 31.1275L134.434 23.1738L117.46 3.58765Z" fill="white" stroke="#212121" stroke-width="1.5"/>
<path d="M95.2266 25.5606L97.6426 6.93066H113.719L124.684 20.8797L124.034 25.5606H95.2266Z" stroke="#212121" stroke-width="1.5"/>
<path d="M121.516 60.9345C126.933 60.9345 131.96 56.2573 132.848 50.6136C133.735 44.9699 130.178 40.2928 124.761 40.2928C119.344 40.2928 114.317 44.9699 113.429 50.6136C112.542 56.2573 116.099 60.9345 121.516 60.9345Z" fill="white" stroke="#212121" stroke-width="1.5"/>
<path d="M46.2229 60.9345C51.6399 60.9345 56.6673 56.2573 57.5546 50.6136C58.4418 44.9699 54.8851 40.2928 49.4681 40.2928C44.0511 40.2928 39.0237 44.9699 38.1365 50.6136C37.2492 56.2573 40.806 60.9345 46.2229 60.9345Z" fill="white" stroke="#212121" stroke-width="1.5"/>
<path d="M122.403 55.3153C124.918 55.3153 127.197 53.1539 127.596 50.6135C127.996 48.0731 126.396 45.9117 123.881 45.9117C121.366 45.9117 119.087 48.0731 118.688 50.6135C118.288 53.1539 119.888 55.3153 122.403 55.3153Z" fill="white" stroke="#212121" stroke-width="1.5"/>
<path d="M47.104 55.3153C49.6188 55.3153 51.898 53.1539 52.2974 50.6135C52.6968 48.0731 51.0972 45.9117 48.5824 45.9117C46.0676 45.9117 43.7884 48.0731 43.389 50.6135C42.9896 53.1539 44.5892 55.3153 47.104 55.3153Z" fill="white" stroke="#212121" stroke-width="1.5"/>
<path d="M148.46 33.7151H29.7137C28.9798 33.7151 28.3848 34.3101 28.3848 35.044C28.3848 35.778 28.9798 36.373 29.7137 36.373H148.46C149.194 36.373 149.789 35.778 149.789 35.044C149.789 34.3101 149.194 33.7151 148.46 33.7151Z" fill="white" stroke="#212121" stroke-width="1.5"/>
<mask id="path-11-outside-1_183_16159" maskUnits="userSpaceOnUse" x="145.264" y="38.1454" width="7.58899" height="11.7926" fill="black">
<rect fill="white" x="145.264" y="38.1454" width="7.58899" height="11.7926"/>
<path fill-rule="evenodd" clip-rule="evenodd" d="M147.685 46.4128C148.694 46.045 149.457 45.2143 149.619 44.1556C149.78 43.0968 149.3 42.0734 148.447 41.4172L147.685 46.4128Z"/>
</mask>
<path d="M147.685 46.4128L146.202 46.1832L145.82 48.6907L148.201 47.8228L147.685 46.4128ZM148.447 41.4172L149.36 40.2285L147.348 38.6801L146.965 41.1876L148.447 41.4172ZM148.136 43.9259C148.068 44.3727 147.736 44.7963 147.169 45.0028L148.201 47.8228C149.652 47.2938 150.846 46.0558 151.101 44.3852L148.136 43.9259ZM147.535 42.606C148.014 42.9745 148.205 43.4791 148.136 43.9259L151.101 44.3852C151.356 42.7145 150.586 41.1723 149.36 40.2285L147.535 42.606ZM146.965 41.1876L146.202 46.1832L149.167 46.6424L149.93 41.6469L146.965 41.1876Z" fill="#212121" mask="url(#path-11-outside-1_183_16159)"/>
<mask id="path-13-outside-2_183_16159" maskUnits="userSpaceOnUse" x="22.6631" y="37.8672" width="7.53204" height="11.7675" fill="black">
<rect fill="white" x="22.6631" y="37.8672" width="7.53204" height="11.7675"/>
<path fill-rule="evenodd" clip-rule="evenodd" d="M27.0474 46.4239C26.1915 45.7727 25.7056 44.7523 25.8611 43.693C26.0166 42.6336 26.7748 41.7986 27.7812 41.4248L27.0474 46.4239Z"/>
</mask>
<path d="M27.0474 46.4239L28.5311 46.645L28.1626 49.1554L26.1414 47.6177L27.0474 46.4239ZM27.7812 41.4248L27.2569 40.018L29.6334 39.1354L29.2649 41.6458L27.7812 41.4248ZM27.3447 43.914C27.2791 44.3611 27.4728 44.8645 27.9535 45.2302L26.1414 47.6177C24.9102 46.6809 24.1321 45.1435 24.3775 43.4719L27.3447 43.914ZM28.3056 42.8316C27.7404 43.0415 27.4103 43.4669 27.3447 43.914L24.3775 43.4719C24.6228 41.8003 25.8093 40.5556 27.2569 40.018L28.3056 42.8316ZM29.2649 41.6458L28.5311 46.645L25.5638 46.2029L26.2976 41.2038L29.2649 41.6458Z" fill="#212121" mask="url(#path-13-outside-2_183_16159)"/>
<rect x="-0.627998" y="-0.856229" width="2.96106" height="7.71961" transform="matrix(0.988213 0.153087 -0.150883 0.988552 146.381 40.6603)" fill="white" stroke="#212121" stroke-width="1.5"/>
<rect x="0.850735" y="-0.631532" width="2.96104" height="7.71969" transform="matrix(-0.989084 -0.147356 -0.14523 0.989398 31.4735 41.311)" fill="white" stroke="#212121" stroke-width="1.5"/>
<path d="M53.9497 13.3571C63.1446 22.5075 75.5353 25.1718 80.5812 25.3601L83.9453 30.8673C77.8247 31.4792 63.2568 30.9803 53.9497 24.0892C42.3159 15.4754 27.5986 22.1123 23.2534 24.0892C18.9083 26.0662 15.8246 24.2304 14.423 22.9595C13.3016 21.9428 9.93764 20.4648 8.39582 19.8528C17.7869 1.63672 42.4561 1.91914 53.9497 13.3571Z" fill="white" stroke="#212121" stroke-width="1.5"/>
<path d="M79.9718 52.2529L89.6323 52.2529C88.4187 43.6181 87.4672 35.0657 88.4245 27.5213C89.8303 16.4432 93.9557 7.46388 95.9512 2.97559L86.5795 2.97559C83.3162 8.00941 84.0641 17.659 83.1741 27.5213C82.3369 36.7986 79.7604 46.2641 79.9718 52.2529Z" fill="white" stroke="#212121" stroke-width="1.5"/>
<path d="M80.567 24.7579C81.6065 21.1801 87.022 22.9829 89.5998 24.3315L90.5546 28.5858C89.6195 29.2909 87.1626 30.9108 84.816 31.7491C81.8829 32.7969 79.2677 29.2303 80.567 24.7579Z" fill="white" stroke="#212121" stroke-width="1.5"/>
<path d="M132.778 61H21.084" stroke="#212121" stroke-width="1.5" stroke-linecap="round"/>
</svg>
