<svg width="21" height="21" viewBox="0 0 21 21" fill="none" xmlns="http://www.w3.org/2000/svg">
<path d="M20.3438 10.1948C20.3438 15.814 15.791 20.3667 10.1719 20.3667C9.10547 20.3667 8.08008 20.2437 7.13672 19.9155C7.54688 19.2593 8.16211 18.1519 8.4082 17.2495C8.53125 16.7983 9.02344 14.8296 9.02344 14.8296C9.35156 15.4858 10.3359 16.019 11.3613 16.019C14.4375 16.019 16.6523 13.189 16.6523 9.70264C16.6523 6.33936 13.9043 3.79639 10.377 3.79639C5.98828 3.79639 3.65039 6.74951 3.65039 9.94873C3.65039 11.4663 4.42969 13.312 5.70117 13.9272C5.90625 14.0093 6.0293 13.9683 6.07031 13.7632C6.07031 13.6401 6.27539 12.9429 6.35742 12.6147C6.35742 12.5327 6.35742 12.4097 6.27539 12.3276C5.86523 11.8354 5.53711 10.8921 5.53711 9.98975C5.53711 7.7749 7.21875 5.60107 10.1309 5.60107C12.5918 5.60107 14.3555 7.28271 14.3555 9.74365C14.3555 12.4917 12.9609 14.3784 11.1562 14.3784C10.1719 14.3784 9.43359 13.5581 9.63867 12.5737C9.92578 11.3433 10.5 10.0308 10.5 9.16943C10.5 8.39014 10.0898 7.73389 9.22852 7.73389C8.20312 7.73389 7.38281 8.80029 7.38281 10.1948C7.38281 11.0972 7.66992 11.7124 7.66992 11.7124C7.66992 11.7124 6.68555 15.978 6.48047 16.7573C6.27539 17.6597 6.35742 18.8901 6.43945 19.6694C2.66602 18.1929 0 14.5425 0 10.1948C0 4.57568 4.55273 0.0229492 10.1719 0.0229492C15.791 0.0229492 20.3438 4.57568 20.3438 10.1948Z" fill="white"/>
</svg>
