<svg width="22" height="25" viewBox="0 0 22 25" fill="none" xmlns="http://www.w3.org/2000/svg">
<path d="M9.5 9.26892V17.9491C9.5 18.4258 9.83646 18.8362 10.3039 18.9297L12 19.2689" stroke="#212121"/>
<path d="M4.5 6.26892C6.33333 6.43559 10.4 6.76892 12 6.76892" stroke="#212121"/>
<path d="M9 1.76892C10.5 1.26892 10.4238 1.37004 11 1.26893M21 20.7689C20.6778 20.3547 20.3835 19.8482 20.1148 19.2689M20.1148 19.2689C18.0482 14.8132 17.5 6.04611 17.5 1.7689C15.9095 0.814595 13.2379 0.876182 11 1.26893M20.1148 19.2689C19.9424 19.5493 19.1298 20.0655 17.2096 20.2224M12 21.7689C12.1667 15.3927 12.6 2.21751 11 1.26893M12 21.7689V23.7689M12 21.7689C12.1327 21.3709 12.8146 20.6559 14.5 20.3809M14.5 20.3809C14.9316 20.3105 15.4291 20.2689 16 20.2689C16.4448 20.2689 16.847 20.2521 17.2096 20.2224M14.5 20.3809V22.7689M17.2096 20.2224L17.5 22.2689" stroke="#212121" stroke-linecap="round" stroke-linejoin="round"/>
<path d="M17.9999 8.76892H19.4999C20.0522 8.76892 20.4999 8.32121 20.4999 7.76892V3.26892C20.4999 2.71664 20.0522 2.26892 19.4999 2.26892H17.4999M11.4999 2.26892C9.72325 2.26892 4.79025 1.74285 1.9581 1.39169C1.4226 1.32529 0.928447 1.69039 0.861994 2.22588C0.594523 4.38122 0.468405 7.58124 1.49993 8.26892C2.69993 9.06892 8.9999 9.26892 11.9999 9.26892" stroke="#212121"/>
</svg>
