<svg width="13" height="36" viewBox="0 0 13 36" fill="none" xmlns="http://www.w3.org/2000/svg">
<path d="M8 7.5H8.75597C9.19758 7.5 9.5869 7.21033 9.7138 6.78735L10.7716 3.26142C10.9043 2.81914 10.7052 2.34482 10.2965 2.12976V2.12976C7.76355 0.796606 4.73645 0.796606 2.20346 2.12976V2.12976C1.79484 2.34482 1.59574 2.81914 1.72843 3.26142L2.7862 6.78735C2.9131 7.21033 3.30242 7.5 3.74403 7.5H4.5M8 7.5V7.5C6.91561 6.88035 5.58439 6.88035 4.5 7.5V7.5M8 7.5L8.88462 12.3654M4.5 7.5L2.75 18.5M2.75 18.5L8.88462 12.3654M2.75 18.5L1.26321 27.8455M8.88462 12.3654L11.9063 28.9845C11.965 29.3074 11.8615 29.6385 11.6295 29.8705L7.20711 34.2929C6.81658 34.6834 6.18342 34.6834 5.79289 34.2929L1.3606 29.8606C1.13408 29.6341 1.02979 29.3127 1.08012 28.9964L1.26321 27.8455M1.26321 27.8455L10.1087 19" stroke="#212121"/>
</svg>
