<svg width="32" height="12" viewBox="0 0 32 12" fill="none" xmlns="http://www.w3.org/2000/svg">
<rect x="10.5" y="0.5" width="11" height="11" rx="0.5" stroke="#212121"/>
<path d="M0.954732 2.41527L9.95473 1.59709C10.2475 1.57047 10.5 1.80102 10.5 2.09503V9.90497C10.5 10.199 10.2475 10.4295 9.95473 10.4029L0.954733 9.58473C0.697193 9.56132 0.5 9.34539 0.5 9.08679V2.91321C0.5 2.65461 0.697193 2.43868 0.954732 2.41527Z" stroke="#212121"/>
<path d="M31.0453 2.41527L22.0453 1.59709C21.7525 1.57047 21.5 1.80102 21.5 2.09503V9.90497C21.5 10.199 21.7525 10.4295 22.0453 10.4029L31.0453 9.58473C31.3028 9.56132 31.5 9.34539 31.5 9.08679V2.91321C31.5 2.65461 31.3028 2.43868 31.0453 2.41527Z" stroke="#212121"/>
<circle cx="4" cy="6" r="1.5" stroke="#212121"/>
</svg>
