<svg width="22" height="36" viewBox="0 0 22 36" fill="none" xmlns="http://www.w3.org/2000/svg">
<path d="M15.8677 3C16.0123 4.5 16.3015 7 15 10" stroke="#212121"/>
<path d="M11.1136 22.5L11.5257 19.9099C11.5683 19.642 11.2618 19.4596 11.0467 19.6248L6 23.5L1 22L3 17.5L12.2853 15.1355L13 7.5H12.744C12.3024 7.5 11.9131 7.21033 11.7862 6.78735L10.7284 3.26142C10.5957 2.81914 10.7948 2.34482 11.2035 2.12976V2.12976C13.7364 0.796606 16.7636 0.796606 19.2965 2.12976V2.12976C19.7052 2.34482 19.9043 2.81914 19.7716 3.26142L18.7138 6.78735C18.5869 7.21033 18.1976 7.5 17.756 7.5H17.5L19.7273 22.5M11.1136 22.5H19.7273M11.1136 22.5L10.3182 27.5M19.7273 22.5L20.6364 27.5M10.3182 27.5L10.2632 27.8455L10.0801 28.9964C10.0298 29.3127 10.1341 29.6341 10.3606 29.8606L14.7929 34.2929C15.1834 34.6834 15.8166 34.6834 16.2071 34.2929L20.6295 29.8705C20.8615 29.6385 20.965 29.3074 20.9063 28.9845L20.6364 27.5M10.3182 27.5H20.6364" stroke="#212121"/>
</svg>
