<svg width="33" height="20" viewBox="0 0 33 20" fill="none" xmlns="http://www.w3.org/2000/svg">
<path d="M17.5 6.5H15.5C14.9477 6.5 14.5 6.94772 14.5 7.5V12C14.5 12.5523 14.9477 13 15.5 13H17.5C18.0523 13 18.5 12.5523 18.5 12V7.5C18.5 6.94772 18.0523 6.5 17.5 6.5Z" stroke="#212121"/>
<path d="M14.5 7.08333L8.10877 2.31794C6.48839 1.10976 4.16972 1.66057 3.2658 3.4684V3.4684C1.20993 7.58014 1.20993 12.4199 3.2658 16.5316V16.5316C4.16972 18.3394 6.48838 18.8902 8.10877 17.6821L14.5 12.9167" stroke="#212121"/>
<path d="M18.5 7.08333L24.8912 2.31794C26.5116 1.10976 28.8303 1.66057 29.7342 3.4684V3.4684C31.7901 7.58014 31.7901 12.4199 29.7342 16.5316V16.5316C28.8303 18.3394 26.5116 18.8902 24.8912 17.6821L18.5 12.9167" stroke="#212121"/>
<path d="M14.5 9.49997C13.6667 8.83331 11.5 7.79997 9.5 8.99997" stroke="#212121"/>
<path d="M18.5 9.49997C19.3333 8.83331 21.5 7.79997 23.5 8.99997" stroke="#212121"/>
<path d="M14.5 11.5H12" stroke="#212121"/>
<path d="M18.5 11.5H21" stroke="#212121"/>
</svg>
