<svg width="31" height="31" viewBox="0 0 31 31" fill="none" xmlns="http://www.w3.org/2000/svg">
<mask id="path-1-inside-1_183_22660" fill="white">
<path d="M29.9157 21.1955C28.6127 24.4934 26.2183 27.2449 23.132 28.9908C20.0457 30.7368 16.454 31.3718 12.9561 30.7898C9.45821 30.2078 6.26562 28.4441 3.9109 25.7929C1.55618 23.1416 0.181714 19.7631 0.0167767 16.221C-0.148161 12.6788 0.906406 9.18724 3.00456 6.32863C5.10271 3.47002 8.11759 1.41725 11.5463 0.512742C14.9749 -0.391765 18.6101 -0.093312 21.8453 1.35831C25.0805 2.80994 27.7202 5.32697 29.324 8.48951L28.2746 9.02171C26.7925 6.09924 24.3532 3.77329 21.3636 2.43186C18.374 1.09043 15.0148 0.814638 11.8464 1.65048C8.67801 2.48632 5.89201 4.38326 3.95313 7.02487C2.01426 9.66647 1.03975 12.893 1.19217 16.1662C1.34458 19.4395 2.61471 22.5615 4.79067 25.0115C6.96664 27.4615 9.91686 29.0913 13.1492 29.6291C16.3816 30.1669 19.7006 29.5801 22.5526 27.9667C25.4046 26.3533 27.6172 23.8107 28.8213 20.7632L29.9157 21.1955Z"/>
</mask>
<path d="M29.9157 21.1955C28.6127 24.4934 26.2183 27.2449 23.132 28.9908C20.0457 30.7368 16.454 31.3718 12.9561 30.7898C9.45821 30.2078 6.26562 28.4441 3.9109 25.7929C1.55618 23.1416 0.181714 19.7631 0.0167767 16.221C-0.148161 12.6788 0.906406 9.18724 3.00456 6.32863C5.10271 3.47002 8.11759 1.41725 11.5463 0.512742C14.9749 -0.391765 18.6101 -0.093312 21.8453 1.35831C25.0805 2.80994 27.7202 5.32697 29.324 8.48951L28.2746 9.02171C26.7925 6.09924 24.3532 3.77329 21.3636 2.43186C18.374 1.09043 15.0148 0.814638 11.8464 1.65048C8.67801 2.48632 5.89201 4.38326 3.95313 7.02487C2.01426 9.66647 1.03975 12.893 1.19217 16.1662C1.34458 19.4395 2.61471 22.5615 4.79067 25.0115C6.96664 27.4615 9.91686 29.0913 13.1492 29.6291C16.3816 30.1669 19.7006 29.5801 22.5526 27.9667C25.4046 26.3533 27.6172 23.8107 28.8213 20.7632L29.9157 21.1955Z" stroke="black" stroke-width="2" mask="url(#path-1-inside-1_183_22660)"/>
<path d="M24 9.5L15.5 5L7 9.5M24 9.5L15.5 14M24 9.5V20.5L15.5 25M15.5 14V25M15.5 14L12.5 12.4118M7 9.5V20.5L15.5 25M7 9.5L9.83333 11M18.3333 6.5L9.83333 11M9.83333 11V16L12.5 17.5V12.4118M21 7.91176L12.5 12.4118" stroke="black"/>
<path d="M26 8.25366L29.0291 9.02902L29.8045 5.99989" stroke="black"/>
</svg>
