<svg width="26" height="26" viewBox="0 0 26 26" fill="none" xmlns="http://www.w3.org/2000/svg">
<path d="M10.5459 13.0208L1 22.5668L3.12132 24.6881L10.5459 17.2635M10.5459 13.0208V17.2635M10.5459 13.0208L13.5511 10.0156M10.5459 17.2635L13.5511 14.2583M16.5563 7.01042V11.2531M16.5563 7.01042L13.5511 10.0156M16.5563 7.01042L19.5616 4.00522M16.5563 11.2531L13.5511 14.2583M16.5563 11.2531L19.5616 8.24786M13.5511 10.0156V14.2583M19.5616 4.00522L22.5668 1.00002L24.6881 3.12134L19.5616 8.24786M19.5616 4.00522V8.24786" stroke="#212121"/>
<circle cx="4.18196" cy="21.5061" r="0.5" transform="rotate(-45 4.18196 21.5061)" fill="#212121"/>
</svg>
